<?xml version="1.0" standalone="no"?>
<!DOCTYPE svg PUBLIC "-//W3C//DTD SVG 20010904//EN"
 "http://www.w3.org/TR/2001/REC-SVG-20010904/DTD/svg10.dtd">
<svg version="1.0" xmlns="http://www.w3.org/2000/svg"
 width="16.000000pt" height="16.000000pt" viewBox="0 0 16.000000 16.000000"
 preserveAspectRatio="xMidYMid meet">
<metadata>
Created by potrace 1.11, written by Peter Selinger 2001-2013
</metadata>
<g transform="translate(0.000000,16.000000) scale(0.002500,-0.002500)"
fill="#000000" stroke="none">
<path d="M635 6393 c-288 -40 -517 -240 -609 -533 -20 -65 -20 -77 -23 -2635
-1 -1601 1 -2589 7 -2620 56 -293 262 -518 541 -590 85 -22 5212 -22 5305 0
227 53 428 237 512 467 l27 73 0 2640 0 2640 -27 73 c-83 229 -275 404 -512
470 -56 15 -251 17 -2626 18 -1411 1 -2578 -1 -2595 -3z"/>
</g>
</svg>
